#!OML:ASF X:\für Bonn\!DataBase\2005_08_12_Daniel\c3d\Daniel.ASF
:FULLY-SPECIFIED
:DEGREES
36
root -3.61403 17.2799 1.0859 19.4951 -77.5629 -50.2194
lowerback 47.3646 -15.5141 -3.41732
upperback 13.4012 -23.1015 -1.88176
thorax -4.77768 -12.3224 8.9349
lowerneck 6.65405 13.1817 -2.38608
upperneck 4.81552 17.1618 -4.4158
head 0.643122 8.41102 -1.19178
rclavicle 1.43125e-013 -1.47896e-013
rhumerus -59.1501 10.6093 -74.8215
rradius 29.0184
rwrist 32.0372
rhand -32.6071 38.173
rfingers 7.12502
rthumb -5.83489 8.27333
lclavicle 1.43125e-013 -1.47896e-013
lhumerus 39.4831 3.38495 69.6953
lradius 110.37
lwrist 42.4572
lhand -13.2432 -12.9259
lfingers 7.12502
lthumb 12.8588 16.658
rfemur -64.1219 -12.6235 26.2141
rtibia 109.657
rfoot -1.9223 6.33806
rtoes -7.71105
lfemur 16.3172 -13.8936 -19.4542
ltibia 28.5932
lfoot -18.914 4.31079
ltoes 5.75229
37
root -3.60466 17.2863 1.0978 19.3527 -77.5478 -50.8963
lowerback 48.4096 -15.5665 -3.64799
upperback 13.7553 -23.3939 -2.13009
thorax -4.60727 -12.5311 8.9612
lowerneck 6.58143 13.301 -2.15932
upperneck 4.4888 17.3427 -4.52815
head 0.584907 8.51979 -1.26556
rclavicle 1.63003e-014 -3.18055e-014
rhumerus -59.7011 9.93545 -74.3904
rradius 28.1463
rwrist 33.003
rhand -32.526 38.7426
rfingers 7.12502
rthumb -5.75656 8.84079
lclavicle 1.63003e-014 -3.18055e-014
lhumerus 40.7309 3.17943 69.2795
lradius 110.879
lwrist 43.1654
lhand -13.3987 -12.8674
lfingers 7.12502
lthumb 12.7088 16.7259
rfemur -66.4718 -13.0321 26.7261
rtibia 111.314
rfoot -1.92863 6.86496
rtoes -8.43379
lfemur 17.6914 -13.7539 -19.4818
ltibia 27.6476
lfoot -18.6027 4.26299
ltoes 5.66436
38
root -3.59507 17.2979 1.10946 19.3152 -77.5405 -51.6301
lowerback 50.4351 -15.5997 -3.85864
upperback 12.9795 -23.7025 -1.83455
thorax -4.4591 -12.7343 8.91758
lowerneck 6.46207 13.3986 -1.85802
upperneck 4.17599 17.5044 -4.70492
head 0.551039 8.61919 -1.36392
rclavicle -4.57205e-014 -1.90833e-014
rhumerus -60.1813 9.23092 -73.923
rradius 27.252
rwrist 33.9419
rhand -32.378 39.2205
rfingers 7.12502
rthumb -5.61373 9.31488
lclavicle -4.57205e-014 -1.90833e-014
lhumerus 41.9479 2.94516 68.946
lradius 111.317
lwrist 43.8239
lhand -13.5362 -12.8739
lfingers 7.12502
lthumb 12.5763 16.7276
rfemur -68.8171 -13.3882 27.2853
rtibia 112.887
rfoot -2.03397 7.33561
rtoes -9.71299
lfemur 19.0104 -13.5504 -19.4411
ltibia 26.6827
lfoot -18.2447 4.16177
ltoes 5.59751
39
root -3.58649 17.3103 1.12073 19.3531 -77.5368 -52.3841
lowerback 51.4892 -15.5911 -4.09057
upperback 13.2176 -23.9303 -1.9784
thorax -4.29859 -12.911 8.97133
lowerneck 6.35578 13.4806 -1.44267
upperneck 3.87987 17.6531 -4.94978
head 0.537164 8.7129 -1.49786
rclavicle -5.36719e-014 1.46306e-013
rhumerus -60.5811 8.43026 -73.3139
rradius 26.3114
rwrist 34.9672
rhand -32.0731 39.5258
rfingers 7.12502
rthumb -5.31932 9.61256
lclavicle -5.36719e-014 1.46306e-013
lhumerus 43.0817 2.68508 68.7297
lradius 111.688
lwrist 44.369
lhand -13.5826 -12.9038
lfingers 7.12502
lthumb 12.5316 16.7004
rfemur -71.1633 -13.6935 27.8901
rtibia 114.356
rfoot -2.19685 7.72035
rtoes -11.3239
lfemur 20.2561 -13.3014 -19.3459
ltibia 25.7218
lfoot -17.8403 4.02734
ltoes 5.52035
40
root -3.58055 17.3181 1.13237 19.3809 -77.5565 -53.0871
lowerback 52.5417 -15.529 -4.35556
upperback 13.411 -24.1106 -2.04826
thorax -4.14375 -13.0692 9.09049
lowerneck 6.11544 13.5556 -1.09637
upperneck 3.66144 17.7954 -5.17391
head 0.562144 8.79825 -1.60249
rclavicle -4.53229e-014 2.22639e-014
rhumerus -60.9024 7.70395 -72.6858
rradius 25.3496
rwrist 35.8358
rhand -31.6827 39.485
rfingers 7.12502
rthumb -4.94236 9.56263
lclavicle -4.53229e-014 2.22639e-014
lhumerus 44.1754 2.41901 68.6704
lradius 111.976
lwrist 44.7815
lhand -13.5175 -12.9831
lfingers 7.12502
lthumb 12.5943 16.6172
rfemur -73.5355 -13.9676 28.5035
rtibia 115.762
rfoot -2.3283 8.07645
rtoes -13.0236
lfemur 21.454 -13.034 -19.2557
ltibia 24.7827
lfoot -17.4317 3.89556
ltoes 5.69011
